<?xml version="1.0" standalone="no"?>
<!DOCTYPE svg PUBLIC "-//W3C//DTD SVG 20010904//EN"
 "http://www.w3.org/TR/2001/REC-SVG-20010904/DTD/svg10.dtd">
<svg version="1.0" xmlns="http://www.w3.org/2000/svg"
 width="12.000000pt" height="20.000000pt" viewBox="0 0 12.000000 20.000000"
 preserveAspectRatio="xMidYMid meet">

<g transform="translate(0.000000,20.000000) scale(0.100000,-0.100000)"
fill="#000000" stroke="none">
<path d="M63 180 c-4 -13 -14 -20 -31 -20 -20 0 -23 -3 -14 -12 16 -16 15 -75
0 -81 -7 -3 -1 -6 15 -6 28 -1 38 -25 15 -34 -7 -2 -10 -8 -6 -12 10 -11 28 4
28 25 0 11 10 20 25 24 25 6 34 29 15 41 -5 3 -7 12 -4 20 3 8 -4 20 -15 27
-24 15 -29 40 -6 32 8 -4 15 -1 15 5 0 19 -32 12 -37 -9z m27 -50 c0 -5 -4
-10 -10 -10 -5 0 -10 5 -10 10 0 6 5 10 10 10 6 0 10 -4 10 -10z m-33 -52 c-3
-8 -6 -5 -6 6 -1 11 2 17 5 13 3 -3 4 -12 1 -19z m43 7 c0 -8 -7 -15 -15 -15
-8 0 -15 7 -15 15 0 8 7 15 15 15 8 0 15 -7 15 -15z"/>
</g>
</svg>
